<svg width="117" height="50" viewBox="0 0 117 50" fill="none" xmlns="http://www.w3.org/2000/svg">
<g opacity="0.2">
<path d="M32.9687 5.90859C34.7717 5.90859 36.2322 6.45852 37.3501 7.55837C38.468 8.64019 39.0269 10.2088 39.0269 12.2643V21H36.5928V12.6159C36.5928 11.1374 36.2232 10.0105 35.4839 9.23519C34.7447 8.44186 33.735 8.04519 32.4548 8.04519C31.1567 8.04519 30.1199 8.45087 29.3446 9.26224C28.5873 10.0736 28.2087 11.2546 28.2087 12.8052V21H25.7475V6.17905H28.2087V8.2886C28.6955 7.53132 29.3536 6.94534 30.183 6.53064C31.0304 6.11594 31.959 5.90859 32.9687 5.90859ZM42.1276 13.5354C42.1276 12.0209 42.4341 10.6957 43.0472 9.55974C43.6602 8.40579 44.4986 7.51329 45.5624 6.88223C46.6442 6.25117 47.8433 5.93564 49.1595 5.93564C50.4577 5.93564 51.5846 6.21511 52.5402 6.77405C53.4958 7.33299 54.208 8.03617 54.6768 8.8836V6.17905H57.165V21H54.6768V18.2414C54.1899 19.1068 53.4597 19.828 52.4861 20.405C51.5305 20.9639 50.4126 21.2434 49.1324 21.2434C47.8162 21.2434 46.6262 20.9189 45.5624 20.2698C44.4986 19.6207 43.6602 18.7101 43.0472 17.5382C42.4341 16.3662 42.1276 15.032 42.1276 13.5354ZM54.6768 13.5625C54.6768 12.4446 54.4514 11.471 54.0006 10.6416C53.5499 9.81216 52.9368 9.1811 52.1615 8.74837C51.4043 8.29761 50.5658 8.07223 49.6463 8.07223C48.7267 8.07223 47.8883 8.2886 47.1311 8.72133C46.3738 9.15405 45.7698 9.78512 45.319 10.6145C44.8682 11.4439 44.6429 12.4175 44.6429 13.5354C44.6429 14.6713 44.8682 15.663 45.319 16.5104C45.7698 17.3398 46.3738 17.9799 47.1311 18.4307C47.8883 18.8634 48.7267 19.0798 49.6463 19.0798C50.5658 19.0798 51.4043 18.8634 52.1615 18.4307C52.9368 17.9799 53.5499 17.3398 54.0006 16.5104C54.4514 15.663 54.6768 14.6804 54.6768 13.5625ZM62.5952 3.77199C62.1264 3.77199 61.7297 3.60972 61.4052 3.28517C61.0806 2.96063 60.9184 2.56396 60.9184 2.09517C60.9184 1.62638 61.0806 1.22971 61.4052 0.905166C61.7297 0.580619 62.1264 0.418346 62.5952 0.418346C63.0459 0.418346 63.4246 0.580619 63.7311 0.905166C64.0556 1.22971 64.2179 1.62638 64.2179 2.09517C64.2179 2.56396 64.0556 2.96063 63.7311 3.28517C63.4246 3.60972 63.0459 3.77199 62.5952 3.77199ZM63.7852 6.17905V21H61.324V6.17905H63.7852ZM70.9818 8.20746V16.9432C70.9818 17.6644 71.1351 18.1782 71.4416 18.4848C71.7481 18.7733 72.28 18.9175 73.0373 18.9175H74.8494V21H72.6316C71.2613 21 70.2336 20.6845 69.5484 20.0534C68.8633 19.4223 68.5207 18.3856 68.5207 16.9432V8.20746H66.6005V6.17905H68.5207V2.44676H70.9818V6.17905H74.8494V8.20746H70.9818ZM79.1025 3.77199C78.6337 3.77199 78.237 3.60972 77.9125 3.28517C77.5879 2.96063 77.4256 2.56396 77.4256 2.09517C77.4256 1.62638 77.5879 1.22971 77.9125 0.905166C78.237 0.580619 78.6337 0.418346 79.1025 0.418346C79.5532 0.418346 79.9319 0.580619 80.2384 0.905166C80.5629 1.22971 80.7252 1.62638 80.7252 2.09517C80.7252 2.56396 80.5629 2.96063 80.2384 3.28517C79.9319 3.60972 79.5532 3.77199 79.1025 3.77199ZM80.2925 6.17905V21H77.8313V6.17905H80.2925ZM98.0098 13.0216C98.0098 13.4904 97.9828 13.9862 97.9287 14.5091H86.0828C86.1729 15.9695 86.6687 17.1145 87.5703 17.9439C88.4898 18.7552 89.5987 19.1609 90.8969 19.1609C91.9607 19.1609 92.8441 18.9175 93.5473 18.4307C94.2685 17.9258 94.7734 17.2587 95.0619 16.4293H97.7123C97.3157 17.8537 96.5223 19.0167 95.3323 19.9182C94.1423 20.8017 92.6638 21.2434 90.8969 21.2434C89.4905 21.2434 88.2284 20.9279 87.1105 20.2968C86.0106 19.6658 85.1452 18.7733 84.5141 17.6193C83.8831 16.4473 83.5675 15.0951 83.5675 13.5625C83.5675 12.0299 83.874 10.6866 84.4871 9.53269C85.1001 8.37875 85.9565 7.49526 87.0564 6.88223C88.1743 6.25117 89.4544 5.93564 90.8969 5.93564C92.3032 5.93564 93.5473 6.24215 94.6291 6.85518C95.711 7.46822 96.5404 8.31564 97.1173 9.39746C97.7123 10.4613 98.0098 11.6693 98.0098 13.0216ZM95.4676 12.5077C95.4676 11.5701 95.2602 10.7678 94.8455 10.1006C94.4308 9.41549 93.8629 8.90163 93.1416 8.55905C92.4385 8.19845 91.6541 8.01814 90.7887 8.01814C89.5446 8.01814 88.4808 8.41481 87.5973 9.20815C86.7318 10.0015 86.236 11.1013 86.1098 12.5077H95.4676ZM102.043 21.1623C101.574 21.1623 101.177 21 100.853 20.6755C100.528 20.3509 100.366 19.9542 100.366 19.4854C100.366 19.0167 100.528 18.62 100.853 18.2954C101.177 17.9709 101.574 17.8086 102.043 17.8086C102.494 17.8086 102.872 17.9709 103.179 18.2954C103.503 18.62 103.666 19.0167 103.666 19.4854C103.666 19.9542 103.503 20.3509 103.179 20.6755C102.872 21 102.494 21.1623 102.043 21.1623Z" fill="#141414"/>
<path d="M5.67902 8.93204C5.96751 8.93204 6.22444 8.9929 6.44982 9.1146C6.6752 9.2318 6.85325 9.40985 6.98397 9.64875C7.11469 9.88765 7.18005 10.1784 7.18005 10.521V12.7049H6.57152V10.6089C6.57152 10.2392 6.47912 9.95752 6.29431 9.76369C6.114 9.56536 5.86834 9.46619 5.55731 9.46619C5.23728 9.46619 4.9826 9.56987 4.79328 9.77722C4.60396 9.98006 4.5093 10.2753 4.5093 10.663V12.7049H3.90078V10.6089C3.90078 10.2392 3.80837 9.95752 3.62356 9.76369C3.44325 9.56536 3.19759 9.46619 2.88657 9.46619C2.56653 9.46619 2.31185 9.56987 2.12253 9.77722C1.93321 9.98006 1.83855 10.2753 1.83855 10.663V12.7049H1.22327V8.99966H1.83855V9.53381C1.96026 9.33998 2.12253 9.19123 2.32537 9.08755C2.53272 8.98388 2.76036 8.93204 3.00827 8.93204C3.3193 8.93204 3.59426 9.00191 3.83316 9.14165C4.07206 9.28138 4.25011 9.48648 4.36731 9.75693C4.47099 9.49549 4.64227 9.29265 4.88118 9.14841C5.12008 9.00416 5.38603 8.93204 5.67902 8.93204ZM7.95945 10.8388C7.95945 10.4601 8.03608 10.1288 8.18934 9.84483C8.3426 9.55634 8.5522 9.33322 8.81815 9.17545C9.08861 9.01769 9.38836 8.9388 9.71741 8.9388C10.042 8.9388 10.3237 9.00867 10.5626 9.14841C10.8015 9.28814 10.9795 9.46394 11.0967 9.67579V8.99966H11.7188V12.7049H11.0967V12.0152C10.975 12.2316 10.7925 12.4119 10.5491 12.5561C10.3102 12.6959 10.0307 12.7657 9.71065 12.7657C9.3816 12.7657 9.0841 12.6846 8.81815 12.5223C8.5522 12.3601 8.3426 12.1324 8.18934 11.8394C8.03608 11.5464 7.95945 11.2129 7.95945 10.8388ZM11.0967 10.8455C11.0967 10.566 11.0404 10.3226 10.9277 10.1153C10.815 9.90794 10.6618 9.75017 10.4679 9.64199C10.2786 9.5293 10.069 9.47295 9.83912 9.47295C9.60923 9.47295 9.39963 9.52704 9.21031 9.63523C9.02099 9.74341 8.86999 9.90117 8.7573 10.1085C8.64461 10.3159 8.58826 10.5593 8.58826 10.8388C8.58826 11.1227 8.64461 11.3706 8.7573 11.5825C8.86999 11.7899 9.02099 11.9499 9.21031 12.0626C9.39963 12.1707 9.60923 12.2248 9.83912 12.2248C10.069 12.2248 10.2786 12.1707 10.4679 12.0626C10.6618 11.9499 10.815 11.7899 10.9277 11.5825C11.0404 11.3706 11.0967 11.125 11.0967 10.8455ZM12.5287 10.8388C12.5287 10.4601 12.6053 10.1288 12.7586 9.84483C12.9118 9.55634 13.1214 9.33322 13.3874 9.17545C13.6578 9.01769 13.9598 8.9388 14.2934 8.9388C14.5819 8.9388 14.8501 9.00642 15.098 9.14165C15.3459 9.27237 15.5352 9.44591 15.666 9.66227V7.70147H16.288V12.7049H15.666V12.0085C15.5442 12.2293 15.3639 12.4119 15.125 12.5561C14.8861 12.6959 14.6067 12.7657 14.2866 12.7657C13.9576 12.7657 13.6578 12.6846 13.3874 12.5223C13.1214 12.3601 12.9118 12.1324 12.7586 11.8394C12.6053 11.5464 12.5287 11.2129 12.5287 10.8388ZM15.666 10.8455C15.666 10.566 15.6096 10.3226 15.4969 10.1153C15.3842 9.90794 15.231 9.75017 15.0371 9.64199C14.8478 9.5293 14.6382 9.47295 14.4083 9.47295C14.1784 9.47295 13.9688 9.52704 13.7795 9.63523C13.5902 9.74341 13.4392 9.90117 13.3265 10.1085C13.2138 10.3159 13.1575 10.5593 13.1575 10.8388C13.1575 11.1227 13.2138 11.3706 13.3265 11.5825C13.4392 11.7899 13.5902 11.9499 13.7795 12.0626C13.9688 12.1707 14.1784 12.2248 14.4083 12.2248C14.6382 12.2248 14.8478 12.1707 15.0371 12.0626C15.231 11.9499 15.3842 11.7899 15.4969 11.5825C15.6096 11.3706 15.666 11.125 15.666 10.8455ZM20.7085 10.7103C20.7085 10.8275 20.7017 10.9514 20.6882 11.0822H17.7267C17.7492 11.4473 17.8732 11.7335 18.0986 11.9409C18.3285 12.1437 18.6057 12.2451 18.9302 12.2451C19.1962 12.2451 19.417 12.1843 19.5928 12.0626C19.7731 11.9364 19.8994 11.7696 19.9715 11.5622H20.6341C20.5349 11.9183 20.3366 12.2091 20.0391 12.4344C19.7416 12.6553 19.372 12.7657 18.9302 12.7657C18.5786 12.7657 18.2631 12.6869 17.9836 12.5291C17.7087 12.3713 17.4923 12.1482 17.3345 11.8597C17.1768 11.5667 17.0979 11.2287 17.0979 10.8455C17.0979 10.4624 17.1745 10.1266 17.3278 9.83807C17.481 9.54958 17.6951 9.32871 17.9701 9.17545C18.2496 9.01769 18.5696 8.9388 18.9302 8.9388C19.2818 8.9388 19.5928 9.01543 19.8633 9.16869C20.1337 9.32195 20.3411 9.53381 20.4853 9.80426C20.6341 10.0702 20.7085 10.3722 20.7085 10.7103ZM20.0729 10.5818C20.0729 10.3474 20.0211 10.1468 19.9174 9.98006C19.8137 9.80877 19.6717 9.6803 19.4914 9.59466C19.3156 9.50451 19.1195 9.45943 18.9032 9.45943C18.5922 9.45943 18.3262 9.5586 18.1053 9.75693C17.889 9.95527 17.765 10.2302 17.7335 10.5818H20.0729ZM13.7568 16.6893C13.883 16.4684 14.0678 16.2881 14.3112 16.1484C14.5547 16.0087 14.8319 15.9388 15.1429 15.9388C15.4765 15.9388 15.7762 16.0177 16.0422 16.1755C16.3081 16.3332 16.5177 16.5563 16.671 16.8448C16.8242 17.1288 16.9009 17.4601 16.9009 17.8388C16.9009 18.2129 16.8242 18.5464 16.671 18.8394C16.5177 19.1324 16.3059 19.3601 16.0354 19.5223C15.7695 19.6846 15.472 19.7657 15.1429 19.7657C14.8229 19.7657 14.5411 19.6959 14.2977 19.5561C14.0588 19.4164 13.8785 19.2384 13.7568 19.022V19.7049H13.1415V14.7015H13.7568V16.6893ZM16.272 17.8388C16.272 17.5593 16.2157 17.3159 16.103 17.1085C15.9903 16.9012 15.8371 16.7434 15.6432 16.6352C15.4539 16.527 15.2443 16.473 15.0144 16.473C14.7891 16.473 14.5794 16.5293 14.3856 16.642C14.1963 16.7502 14.043 16.9102 13.9258 17.122C13.8132 17.3294 13.7568 17.5706 13.7568 17.8455C13.7568 18.125 13.8132 18.3706 13.9258 18.5825C14.043 18.7899 14.1963 18.9499 14.3856 19.0626C14.5794 19.1707 14.7891 19.2248 15.0144 19.2248C15.2443 19.2248 15.4539 19.1707 15.6432 19.0626C15.8371 18.9499 15.9903 18.7899 16.103 18.5825C16.2157 18.3706 16.272 18.1227 16.272 17.8388ZM20.9021 15.9997L18.6709 21.4493H18.0353L18.7655 19.6643L17.2713 15.9997H17.9542L19.1171 19.0017L20.2665 15.9997H20.9021Z" fill="#141414"/>
<path d="M14.1013 34.3994C14.1013 32.9029 14.4078 31.5776 15.0208 30.4237C15.6519 29.2697 16.4993 28.3772 17.5631 27.7462C18.6449 27.0971 19.8349 26.7725 21.1331 26.7725C22.3051 26.7725 23.3238 27.0069 24.1893 27.4757C25.0727 27.9265 25.7759 28.4944 26.2988 29.1796V27.0159H29.409V41.918H26.2988V39.7003C25.7759 40.4035 25.0637 40.9895 24.1622 41.4583C23.2607 41.927 22.233 42.1614 21.079 42.1614C19.7989 42.1614 18.6269 41.8369 17.5631 41.1878C16.4993 40.5207 15.6519 39.6011 15.0208 38.4292C14.4078 37.2392 14.1013 35.8959 14.1013 34.3994ZM26.2988 34.4535C26.2988 33.4257 26.0824 32.5332 25.6497 31.776C25.235 31.0187 24.6851 30.4417 23.9999 30.045C23.3148 29.6484 22.5755 29.45 21.7822 29.45C20.9889 29.45 20.2496 29.6484 19.5645 30.045C18.8793 30.4237 18.3204 30.9916 17.8876 31.7489C17.4729 32.4882 17.2656 33.3716 17.2656 34.3994C17.2656 35.4271 17.4729 36.3286 17.8876 37.1039C18.3204 37.8792 18.8793 38.4742 19.5645 38.8889C20.2677 39.2856 21.0069 39.4839 21.7822 39.4839C22.5755 39.4839 23.3148 39.2856 23.9999 38.8889C24.6851 38.4923 25.235 37.9153 25.6497 37.158C26.0824 36.3827 26.2988 35.4812 26.2988 34.4535ZM39.4628 26.7725C40.6167 26.7725 41.6355 27.0069 42.5189 27.4757C43.4205 27.9265 44.1236 28.4944 44.6285 29.1796V27.0159H47.7387V42.1614C47.7387 43.5317 47.4502 44.7488 46.8733 45.8126C46.2963 46.8944 45.4579 47.7418 44.358 48.3549C43.2762 48.9679 41.978 49.2744 40.4635 49.2744C38.4441 49.2744 36.7673 48.7966 35.433 47.841C34.0988 46.9034 33.3415 45.6233 33.1612 44.0005H36.2173C36.4517 44.7758 36.9476 45.3979 37.7048 45.8667C38.4801 46.3535 39.3997 46.5969 40.4635 46.5969C41.7076 46.5969 42.7083 46.2183 43.4655 45.461C44.2408 44.7037 44.6285 43.6039 44.6285 42.1614V39.6733C44.1056 40.3764 43.3934 40.9714 42.4919 41.4583C41.6084 41.927 40.5987 42.1614 39.4628 42.1614C38.1646 42.1614 36.9746 41.8369 35.8928 41.1878C34.829 40.5207 33.9816 39.6011 33.3505 38.4292C32.7375 37.2392 32.431 35.8959 32.431 34.3994C32.431 32.9029 32.7375 31.5776 33.3505 30.4237C33.9816 29.2697 34.829 28.3772 35.8928 27.7462C36.9746 27.0971 38.1646 26.7725 39.4628 26.7725ZM44.6285 34.4535C44.6285 33.4257 44.4121 32.5332 43.9794 31.776C43.5647 31.0187 43.0148 30.4417 42.3296 30.045C41.6445 29.6484 40.9052 29.45 40.1119 29.45C39.3186 29.45 38.5793 29.6484 37.8942 30.045C37.209 30.4237 36.6501 30.9916 36.2173 31.7489C35.8026 32.4882 35.5953 33.3716 35.5953 34.3994C35.5953 35.4271 35.8026 36.3286 36.2173 37.1039C36.6501 37.8792 37.209 38.4742 37.8942 38.8889C38.5973 39.2856 39.3366 39.4839 40.1119 39.4839C40.9052 39.4839 41.6445 39.2856 42.3296 38.8889C43.0148 38.4923 43.5647 37.9153 43.9794 37.158C44.4121 36.3827 44.6285 35.4812 44.6285 34.4535ZM65.4464 34.1019C65.4464 34.6608 65.4103 35.1657 65.3382 35.6164H53.952C54.0422 36.8064 54.4839 37.762 55.2773 38.4832C56.0706 39.2045 57.0442 39.5651 58.1982 39.5651C59.857 39.5651 61.0289 38.8709 61.7141 37.4826H65.0407C64.5899 38.8529 63.7696 39.9798 62.5795 40.8633C61.4076 41.7287 59.9471 42.1614 58.1982 42.1614C56.7738 42.1614 55.4936 41.8459 54.3577 41.2148C53.2398 40.5658 52.3563 39.6642 51.7072 38.5103C51.0762 37.3383 50.7606 35.986 50.7606 34.4535C50.7606 32.9209 51.0672 31.5776 51.6802 30.4237C52.3113 29.2517 53.1857 28.3502 54.3036 27.7191C55.4395 27.0881 56.7377 26.7725 58.1982 26.7725C59.6045 26.7725 60.8576 27.079 61.9575 27.6921C63.0574 28.3051 63.9138 29.1706 64.5268 30.2884C65.1399 31.3883 65.4464 32.6594 65.4464 34.1019ZM62.228 33.1282C62.2099 31.9923 61.8042 31.0818 61.0109 30.3966C60.2176 29.7115 59.2349 29.3689 58.0629 29.3689C56.9992 29.3689 56.0886 29.7115 55.3313 30.3966C54.5741 31.0638 54.1233 31.9743 53.9791 33.1282H62.228ZM75.9992 26.7725C77.1712 26.7725 78.2169 27.0159 79.1365 27.5028C80.0741 27.9896 80.8043 28.7108 81.3272 29.6664C81.8501 30.622 82.1115 31.776 82.1115 33.1282V41.918H79.0554V33.588C79.0554 32.2538 78.7218 31.235 78.0547 30.5319C77.3875 29.8106 76.477 29.45 75.3231 29.45C74.1691 29.45 73.2496 29.8106 72.5644 30.5319C71.8973 31.235 71.5637 32.2538 71.5637 33.588V41.918H68.4805V27.0159H71.5637V28.7198C72.0686 28.1068 72.7087 27.629 73.484 27.2864C74.2773 26.9438 75.1157 26.7725 75.9992 26.7725ZM85.0166 34.4535C85.0166 32.9209 85.3231 31.5776 85.9361 30.4237C86.5672 29.2517 87.4326 28.3502 88.5325 27.7191C89.6323 27.0881 90.8945 26.7725 92.3189 26.7725C94.1219 26.7725 95.6094 27.2053 96.7814 28.0707C97.9714 28.9181 98.7737 30.1352 99.1884 31.7219H95.8618C95.5914 30.9826 95.1586 30.4056 94.5636 29.9909C93.9686 29.5762 93.2204 29.3689 92.3189 29.3689C91.0567 29.3689 90.047 29.8197 89.2898 30.7212C88.5505 31.6047 88.1809 32.8488 88.1809 34.4535C88.1809 36.0582 88.5505 37.3113 89.2898 38.2128C90.047 39.1143 91.0567 39.5651 92.3189 39.5651C94.1039 39.5651 95.2849 38.7807 95.8618 37.2121H99.1884C98.7557 38.7267 97.9443 39.9347 96.7543 40.8362C95.5643 41.7197 94.0858 42.1614 92.3189 42.1614C90.8945 42.1614 89.6323 41.8459 88.5325 41.2148C87.4326 40.5658 86.5672 39.6642 85.9361 38.5103C85.3231 37.3383 85.0166 35.986 85.0166 34.4535ZM115.676 27.0159L106.534 48.9228H103.343L106.372 41.6746L100.503 27.0159H103.938L108.13 38.3751L112.484 27.0159H115.676Z" fill="#141414"/>
</g>
</svg>
