<svg width="169" height="29" viewBox="0 0 169 29" fill="none" xmlns="http://www.w3.org/2000/svg">
<path d="M68.1044 15.854V12.6834H72.3526C73.9989 12.6834 74.8118 12.0735 74.8118 10.8337C74.8118 10.1426 74.4663 9.57341 73.7549 9.1263C73.0434 8.67919 72.068 8.47582 70.7873 8.47582C68.0841 8.47582 66.3769 9.32967 65.6655 11.0369L61.6004 10.0205C62.8402 6.95149 65.9296 5.40674 70.8688 5.40674C76.3768 5.40674 79.1412 7.01237 79.1412 10.2442C79.1412 12.1548 78.0843 13.3539 75.95 13.8216C77.1697 14.1059 78.0843 14.5939 78.6738 15.2647C79.2631 15.9353 79.568 16.8704 79.568 18.0898C79.568 21.8297 76.5599 23.6996 70.5639 23.6996C68.0029 23.6996 65.9905 23.2931 64.5273 22.4599C63.0638 21.6266 61.9053 20.4272 61.0718 18.8419L64.9947 17.8458C65.5637 18.8825 66.3157 19.5939 67.2305 19.9598C68.145 20.3256 69.3239 20.529 70.7264 20.529C72.1289 20.529 73.2671 20.3053 74.1207 19.8379C74.9746 19.3705 75.3811 18.72 75.3811 17.8664C75.3811 16.5248 74.3038 15.8743 72.1695 15.8743H68.1044V15.854Z" fill="#141414"/>
<path d="M101.987 23.1509H97.1496L95.6862 19.8988H86.8651L85.4016 23.1509H80.686L88.9991 5.93518H93.6537L101.967 23.1509H101.987ZM94.3042 16.85L91.2961 10.1223L88.247 16.85H94.3042Z" fill="#141414"/>
<path d="M103.877 5.93518H115.056C115.706 5.93518 116.235 5.93518 116.662 5.97583C117.089 6.01648 117.637 6.13845 118.288 6.36203C118.959 6.58561 119.487 6.9108 119.873 7.35788C120.524 8.08961 120.849 9.0247 120.849 10.1629C120.849 11.9922 119.893 13.2117 118.003 13.8215C120.483 14.3905 121.723 15.8337 121.743 18.171C121.743 19.3704 121.499 20.3459 120.991 21.0776C120.666 21.5656 120.3 21.9721 119.873 22.2768C119.467 22.5817 118.979 22.8054 118.43 22.9272C117.881 23.0491 117.434 23.1306 117.109 23.1509C116.763 23.1712 116.296 23.1915 115.727 23.1915H103.897V5.97583L103.877 5.93518ZM108.145 12.6833H114.629C116.011 12.6833 116.702 12.0532 116.702 10.7725C116.702 9.51243 116.011 8.90258 114.649 8.90258H108.145V12.6833ZM108.145 20.1225H114.873C116.58 20.1225 117.434 19.3501 117.434 17.7848C117.434 16.3826 116.662 15.6915 115.137 15.6915H108.145V20.1225Z" fill="#141414"/>
<path d="M123.918 14.5329C123.918 12.9271 124.203 11.5045 124.792 10.3051C125.381 9.08563 126.174 8.15079 127.17 7.45969C128.166 6.76853 129.284 6.26041 130.483 5.91486C131.703 5.56933 132.983 5.40674 134.365 5.40674C135.747 5.40674 137.089 5.56933 138.308 5.87421C139.528 6.17909 140.646 6.66692 141.682 7.33756C142.719 8.00835 143.532 8.94345 144.142 10.1426C144.752 11.3417 145.036 12.7646 145.036 14.3905C145.036 17.2768 144.121 19.5735 142.292 21.2403C140.463 22.9069 137.882 23.7402 134.528 23.7402C131.174 23.7402 128.573 22.9069 126.703 21.2607C124.833 19.5938 123.918 17.3783 123.918 14.5736V14.5329ZM128.349 14.6548C128.349 15.3865 128.471 16.098 128.695 16.7687C128.918 17.4393 129.263 18.0695 129.731 18.6793C130.199 19.2686 130.829 19.7363 131.662 20.1021C132.495 20.468 133.43 20.6305 134.487 20.6305C135.544 20.6305 136.499 20.4477 137.292 20.1021C138.085 19.7566 138.695 19.3298 139.101 18.8621C139.508 18.3744 139.853 17.8257 140.097 17.2159C140.341 16.606 140.504 16.098 140.565 15.6915C140.626 15.285 140.646 14.9191 140.646 14.5736C140.646 12.9067 140.097 11.4839 139.02 10.2848C137.943 9.08563 136.418 8.49608 134.467 8.49608C132.516 8.49608 130.971 9.10594 129.914 10.3457C128.857 11.5654 128.349 13.0086 128.349 14.6751V14.6548Z" fill="#141414"/>
<path d="M166.805 19.98H169V26.8095H164.894V23.1509H150.606V26.8095H146.5V19.98C147.78 19.98 148.736 19.1264 149.345 17.4393C149.955 15.7321 150.26 13.0492 150.26 9.34995V5.93518H166.805V19.98ZM154.366 9.10595V10.5897C154.366 13.2117 154.163 15.285 153.776 16.8297C153.39 18.3744 152.882 19.4314 152.293 19.98H162.496V9.10595H154.366Z" fill="#141414"/>
<path fill-rule="evenodd" clip-rule="evenodd" d="M44.5126 0H14.2952C6.40015 0 0 6.40015 0 14.2952C0 22.1902 6.40018 28.5904 14.2952 28.5904H44.5126C52.4075 28.5904 58.8078 22.1902 58.8078 14.2952C58.8078 6.40015 52.4075 0 44.5126 0ZM28.767 23.1509H24.4782V15.7524H14.0715V23.1509H9.76242V5.9351H14.0715V12.5612H24.4579V5.9351H28.767V23.1509ZM32.6287 23.1509H49.1735V20.0815H36.9581V15.9758H48.2996V12.9067H36.9581V9.02465H48.6858V5.9351H32.6287V23.1509Z" fill="#141414"/>
</svg>
