<svg width="20" height="20" viewBox="0 0 20 20" fill="none" xmlns="http://www.w3.org/2000/svg">
<path d="M19.1003 17.7743C19.1874 17.8614 19.2565 17.9648 19.3037 18.0786C19.3508 18.1924 19.3751 18.3144 19.3751 18.4375C19.3751 18.5607 19.3508 18.6827 19.3037 18.7965C19.2565 18.9103 19.1874 19.0137 19.1003 19.1008C19.0132 19.1879 18.9098 19.257 18.796 19.3042C18.6822 19.3513 18.5602 19.3756 18.437 19.3756C18.3139 19.3756 18.1919 19.3513 18.0781 19.3042C17.9643 19.257 17.8609 19.1879 17.7738 19.1008L9.99955 11.3254L2.22533 19.1008C2.04941 19.2767 1.81082 19.3756 1.56204 19.3756C1.31327 19.3756 1.07468 19.2767 0.898763 19.1008C0.72285 18.9249 0.624023 18.6863 0.624023 18.4375C0.624023 18.1888 0.72285 17.9502 0.898763 17.7743L8.67416 10L0.898763 2.22581C0.72285 2.0499 0.624023 1.81131 0.624023 1.56253C0.624023 1.31375 0.72285 1.07516 0.898763 0.899252C1.07468 0.723339 1.31327 0.624512 1.56204 0.624512C1.81082 0.624512 2.04941 0.723339 2.22533 0.899252L9.99955 8.67464L17.7738 0.899252C17.9497 0.723339 18.1883 0.624512 18.437 0.624512C18.6858 0.624512 18.9244 0.723339 19.1003 0.899252C19.2762 1.07516 19.3751 1.31375 19.3751 1.56253C19.3751 1.81131 19.2762 2.0499 19.1003 2.22581L11.3249 10L19.1003 17.7743Z" fill="#141414"/>
</svg>
