<svg width="220" height="124" viewBox="0 0 220 124" fill="none" xmlns="http://www.w3.org/2000/svg">
<path fill-rule="evenodd" clip-rule="evenodd" d="M83.3426 49.2448C83.2813 49.7426 83.2497 50.2436 83.248 50.7452C83.248 52.8763 83.7489 54.1743 84.7507 54.6392C85.8034 55.1238 86.9448 55.386 88.1034 55.4092H88.3938C88.5134 55.4106 88.6318 55.433 88.7436 55.4752L93.8564 55.4092C96.1136 55.4092 97.8069 54.9406 98.9362 54.0034C99.9885 53.1654 100.831 52.0935 101.396 50.8728C101.642 50.2697 101.845 49.65 102.003 49.0182C102.153 48.4242 102.269 47.9182 102.357 47.4782L104.848 35.7786H97.24L94.4966 48.84C94.4968 48.9179 94.4746 48.9942 94.4328 49.06C94.3843 49.1297 94.3416 49.2033 94.3052 49.28C94.1397 49.6184 93.8849 49.9052 93.5682 50.1094C93.2041 50.3657 92.7683 50.5004 92.323 50.4944C91.9491 50.5129 91.5825 50.3859 91.3 50.1402C91.1773 50.0335 91.0794 49.9012 91.0132 49.7526C90.9471 49.6039 90.9143 49.4426 90.9173 49.28V49.1502C90.9188 49.1257 90.9252 49.1018 90.9362 49.0799C90.9471 49.058 90.9624 49.0385 90.981 49.0226V48.84L99.9284 5.7552C99.9927 5.36327 100.184 5.00317 100.472 4.73C100.739 4.47935 101.053 4.28418 101.396 4.1558C101.489 4.11274 101.586 4.08027 101.686 4.059C101.78 4.0389 101.876 4.02858 101.972 4.0282C102.349 4.02652 102.712 4.16269 102.995 4.411C103.14 4.53735 103.255 4.69467 103.331 4.87135C103.408 5.04803 103.443 5.23956 103.435 5.4318V5.7552L100.822 18.0884H108.427L110.598 7.733C110.684 7.2248 110.768 6.754 110.856 6.3294C110.944 5.9048 111.025 5.4978 111.111 5.115C111.111 4.895 111.122 4.6882 111.142 4.4726C111.166 4.23944 111.178 4.00519 111.177 3.7708C111.177 2.3254 110.761 1.364 109.927 0.8976C109.07 0.419456 108.119 0.135556 107.14 0.066C106.865 0.0225933 106.587 0.000527532 106.308 0L100.32 0C97.504 0 95.5629 0.6182 94.4966 1.8546C93.4492 3.05492 92.6846 4.47512 92.2592 6.0104C92.2144 6.31116 92.1505 6.60877 92.0678 6.9014C91.9812 7.19527 91.9172 7.49535 91.8764 7.799L83.6309 47.4188C83.5033 48.1008 83.4086 48.7102 83.3426 49.2448Z" fill="#141414"/>
<path fill-rule="evenodd" clip-rule="evenodd" d="M110.665 54.5776H118.268L128.621 5.81678H134.438L135.461 0.897583H116.288L115.265 5.81678H121.018L110.665 54.5776Z" fill="#141414"/>
<path fill-rule="evenodd" clip-rule="evenodd" d="M139.165 54.5776C141.512 54.5776 143.272 54.1302 144.445 53.2356C145.618 52.338 146.461 51.3612 146.971 50.2942C147.218 49.7239 147.421 49.1355 147.578 48.5342C147.726 47.96 147.844 47.4628 147.93 47.0338L152.02 27.7992C152.104 27.3328 152.177 26.8869 152.24 26.4616C152.301 26.0802 152.334 25.6949 152.339 25.3088C152.339 23.8172 151.994 22.7304 151.316 22.0506C150.703 21.4117 149.931 20.9477 149.079 20.7064C148.597 20.586 148.105 20.5123 147.609 20.4864C147.134 20.46 146.74 20.46 146.452 20.46H142.492L146.643 0.897583H139.04L127.6 54.5776H139.165ZM141.401 25.3704H142.872C143.265 25.3586 143.649 25.4838 143.959 25.7246C144.256 25.96 144.399 26.4352 144.399 27.1634V27.7376C144.395 27.9769 144.352 28.2139 144.272 28.4394L140.312 47.102V47.1988C140.312 47.2208 140.29 47.2516 140.246 47.2912C140.102 47.8743 139.818 48.413 139.416 48.8598C139.212 49.0979 138.956 49.2873 138.669 49.4141C138.381 49.5408 138.069 49.6018 137.755 49.5924H136.29L141.401 25.3704Z" fill="#141414"/>
<path fill-rule="evenodd" clip-rule="evenodd" d="M24.8074 74.03L25.8304 69.1108H6.65738L5.63438 74.03H11.3874L1.03418 122.793H8.63738L18.9906 74.03H24.8074Z" fill="#141414"/>
<path fill-rule="evenodd" clip-rule="evenodd" d="M41.8045 69.1108L31.7703 95.8232L37.4595 69.1108H29.8541L18.4141 122.793H26.0195L35.9261 96.91L30.4305 122.793H38.0359L49.4759 69.1108H41.8045Z" fill="#141414"/>
<path fill-rule="evenodd" clip-rule="evenodd" d="M71.6497 74.03L72.6727 69.1108H53.4997L52.4767 74.03H58.2297L47.8765 122.793H55.4797L65.8351 74.03H71.6497Z" fill="#141414"/>
<path fill-rule="evenodd" clip-rule="evenodd" d="M80.914 69.1108L63.9146 122.791H71.267L75.612 107.831H80.7864L78.8702 122.791H86.3502L92.3584 69.1108H80.914ZM81.4266 102.854H76.954L84.874 75.5744H85.2568L81.4266 102.854Z" fill="#141414"/>
<path fill-rule="evenodd" clip-rule="evenodd" d="M219.234 73.4932L219.441 72.9586L215.772 70.9104L215.644 71.28C214.293 70.3054 208.452 69.6476 208.452 69.6476C208.452 69.6476 198.011 69.0272 195.171 68.7874C192.331 68.5476 190.016 67.3882 189.2 66.528C188.384 65.6678 188.065 63.6218 188.065 63.6218C187.653 63.3255 187.224 63.0544 186.78 62.81C186.503 64.6756 184.034 66.1914 184.034 66.1914L183.977 66.5962L176 65.6854L173.617 66.253L173.494 67.4872L72.9982 55.0154C73.8727 54.7916 74.6741 54.3443 75.3236 53.7174C76.3783 52.6724 77.1674 51.3899 77.6248 49.9774C77.7524 49.511 77.8712 49.049 77.9768 48.6024C78.0824 48.1558 78.1792 47.7422 78.265 47.3572L86.5084 8.69C86.5539 8.55558 86.5863 8.41707 86.6052 8.2764C86.625 8.1268 86.6558 7.9486 86.6998 7.733C86.7965 7.3773 86.8606 7.01353 86.8912 6.6462C86.933 6.2216 86.9572 5.7948 86.9572 5.3702V4.9544C86.9539 4.79179 86.9318 4.6301 86.8912 4.4726C86.7978 3.34879 86.3633 2.28032 85.646 1.4102C84.898 0.470067 83.5457 0 81.5892 0H76.4104C74.3659 0 72.7679 0.480333 71.6166 1.441C70.5351 2.31284 69.6624 3.41557 69.0624 4.6684C68.6959 5.39045 68.4068 6.14928 68.2 6.9322C68.0079 7.6802 67.87 8.26687 67.7864 8.6922L59.5386 47.3572C59.411 48.0392 59.3186 48.6442 59.2526 49.1766C59.1914 49.6752 59.1598 50.1769 59.158 50.6792C59.1345 51.7924 59.2695 52.6819 59.5628 53.3478L43.098 51.304L46.4398 35.42H50.721C53.361 35.42 55.2464 34.8333 56.3772 33.66C57.4514 32.574 58.2509 31.2473 58.7092 29.7902C58.8368 29.3656 58.9512 28.93 59.059 28.4702C59.1668 28.0104 59.2614 27.61 59.3472 27.225L63.2456 8.7582C63.2938 8.60133 63.3255 8.43985 63.3402 8.2764C63.362 8.09341 63.3951 7.91193 63.4392 7.733C63.5238 7.38658 63.5878 7.03543 63.6306 6.6814C63.6733 6.30893 63.6946 5.93431 63.6944 5.5594V5.3702C63.6461 4.25105 63.2432 3.17624 62.5438 2.3012C61.8207 1.364 60.3328 0.896133 58.08 0.8976H46.2L35.695 50.38L29.656 49.6298L39.985 0.8976H28.16C25.8588 0.8976 24.1443 1.3552 23.0164 2.2704C21.9729 3.07782 21.131 4.11631 20.5568 5.3042C20.3079 5.83802 20.1147 6.39611 19.9804 6.9696C19.855 7.5218 19.7472 8.0146 19.6614 8.4392L15.7014 27.1634C15.6961 27.2723 15.6746 27.3798 15.6376 27.4824C15.5926 27.6247 15.5704 27.7732 15.5716 27.9224C15.4874 28.2273 15.4234 28.5374 15.3802 28.8508C15.337 29.2011 15.3164 29.5538 15.3186 29.9068V30.2896C15.3541 31.1226 15.619 31.9296 16.0842 32.6216C16.5521 33.3271 17.424 33.7465 18.7 33.88L11.88 47.432L0 45.9558V56.1132L104.746 69.1108H102.709L91.2692 122.791H98.8724L104.306 97.163H107.758L102.324 122.791H109.932L120.932 71.1172L127.327 71.9114C127.128 72.2219 126.949 72.5452 126.793 72.8794C126.426 73.602 126.136 74.3616 125.93 75.1454C125.739 75.8934 125.6 76.4764 125.514 76.9054L117.28 115.573C117.15 116.255 117.06 116.857 116.992 117.392C116.93 117.89 116.899 118.391 116.897 118.892C116.853 120.946 117.342 122.236 118.364 122.762C119.394 123.295 120.53 123.59 121.689 123.622H122.043C122.142 123.62 122.24 123.643 122.329 123.688L127.505 123.622C130.101 123.622 131.955 123.058 133.065 121.931C134.12 120.886 134.909 119.603 135.366 118.191C135.494 117.724 135.61 117.262 135.716 116.818C135.821 116.373 135.918 115.958 136.006 115.573L144.247 76.9054C144.293 76.7702 144.325 76.6309 144.344 76.4896C144.366 76.34 144.397 76.1618 144.441 75.9462C144.536 75.59 144.6 75.2264 144.632 74.8594C144.657 74.5954 144.674 74.3314 144.683 74.0674L150.458 74.7824L140.285 122.793H151.468C151.98 122.793 152.588 122.762 153.289 122.694C154.027 122.625 154.75 122.442 155.432 122.153C156.603 121.695 157.652 120.974 158.499 120.045C159.478 119.02 160.182 117.48 160.6 115.377L163.603 100.938C163.647 100.716 163.68 100.492 163.7 100.267C163.722 100.03 163.731 99.8272 163.731 99.6556C163.731 98.2945 163.263 97.2935 162.327 96.6526C161.399 96.017 160.317 95.6424 159.194 95.568C159.071 95.5271 158.941 95.5063 158.811 95.5064H157.98L158.107 94.9938C160.111 94.9513 161.656 94.5567 162.743 93.8102C163.83 93.0666 164.604 92.2702 165.075 91.4122C165.358 90.9784 165.573 90.5045 165.715 90.0064C165.84 89.54 165.948 89.1264 166.032 88.792L168.562 77.0308L172.511 77.5214L172.394 78.6984L174.625 79.7324L179.267 80.1944L179.234 80.5838L180.622 80.8588L179.104 84.0774H178.836L177.243 87.8988L182.569 89.8084L182.721 89.5114L189.616 90.5586C191.561 90.8556 194.641 86.867 199.914 86.3236C202.4 86.0684 205.788 86.647 207.117 88.5456C207.295 89.7886 208.34 89.4608 208.514 89.188C208.98 88.4642 208.023 87.6304 208.023 87.6304C208.023 87.6304 203.183 83.0456 196.379 85.2566C189.574 87.4676 189.387 87.648 184.833 86.02L185.537 84.3678L185.119 83.4878L183.634 83.0896L183.971 81.6244L187.099 83.303C192.016 81.9654 196.64 83.512 196.64 83.512L197.677 82.3086L197.945 78.7666C201.85 75.2884 212.685 79.178 212.615 79.3342L212.395 79.838L215.8 80.96L216.02 80.5596L217.793 80.135L219.485 76.252L219.993 74.932L219.234 73.4932ZM66.825 48.9214C66.8242 48.8217 66.846 48.7232 66.8888 48.6332L75.7724 6.7738V6.6814C75.7724 6.6572 75.7922 6.6264 75.8362 6.5846C75.9834 6.12966 76.262 5.72851 76.637 5.4318C76.9972 5.10922 77.4625 4.92861 77.946 4.9236C78.1436 4.90864 78.3419 4.94072 78.5247 5.0172C78.7075 5.09368 78.8695 5.21239 78.9976 5.3636C79.2302 5.65266 79.3554 6.01341 79.3518 6.3844V6.578C79.3078 6.6198 79.288 6.6506 79.288 6.6748V6.7672L70.4 48.6332C70.3202 49.1374 70.0901 49.6059 69.74 49.9774C69.5444 50.1733 69.3096 50.3257 69.0511 50.4247C68.7925 50.5236 68.516 50.5669 68.2396 50.5516C68.0553 50.5715 67.8689 50.5509 67.6934 50.4913C67.5179 50.4317 67.3575 50.3345 67.2234 50.2065C67.0894 50.0785 66.9848 49.9228 66.9172 49.7502C66.8495 49.5777 66.8203 49.3924 66.8316 49.2074L66.825 48.9214ZM52.7648 5.8168L53.7878 5.8828C54.5556 5.9246 55.0858 6.1028 55.385 6.391C55.532 6.54372 55.6468 6.72452 55.7224 6.92259C55.798 7.12066 55.8329 7.33194 55.825 7.5438V7.799C55.8237 7.88855 55.8019 7.97661 55.7612 8.0564C55.7596 8.14242 55.7485 8.22799 55.7282 8.3116C55.7082 8.39372 55.6979 8.47789 55.6974 8.5624L51.5416 27.8652C51.3216 28.886 50.9234 29.5812 50.3272 29.942C49.7517 30.2981 49.0878 30.4856 48.411 30.4832H47.52L52.7648 5.8168ZM137.091 74.701V74.8C137.049 74.8418 137.027 74.8726 137.027 74.899V74.9914L128.146 116.849C128.062 117.353 127.828 117.821 127.475 118.191C127.279 118.387 127.044 118.539 126.785 118.638C126.526 118.737 126.249 118.78 125.972 118.765C125.788 118.785 125.602 118.764 125.427 118.705C125.251 118.645 125.091 118.548 124.957 118.42C124.824 118.293 124.719 118.137 124.652 117.965C124.584 117.792 124.555 117.608 124.566 117.423V117.135C124.565 117.036 124.586 116.938 124.63 116.849L133.514 74.9892V74.8968C133.514 74.8704 133.533 74.8396 133.577 74.7978C133.724 74.3431 134.002 73.942 134.376 73.645C134.74 73.3216 135.209 73.1417 135.696 73.139C135.894 73.124 136.093 73.1561 136.276 73.2326C136.459 73.3091 136.621 73.4278 136.75 73.579C136.981 73.8684 137.106 74.2291 137.102 74.5998L137.091 74.701ZM23.2386 27.5484C23.2443 27.3999 23.2656 27.2524 23.3024 27.1084L27.2624 8.5118C27.4824 7.4118 27.8696 6.6836 28.4438 6.3404C29.0772 5.98538 29.7948 5.80827 30.5206 5.8278H31.3522L26.2438 29.8496H25.4144C24.8459 29.8816 24.283 29.7229 23.815 29.3986C23.43 29.1016 23.2386 28.6088 23.2386 27.9268V27.5484ZM24.9656 34.1286H25.3506L22.2486 48.7168L18.8562 48.2966L24.9656 34.1286ZM108.845 92.18H105.393L110.169 69.784L113.531 70.1998L108.845 92.18ZM156.231 99.7546C156.209 99.9438 156.174 100.148 156.134 100.357L153.067 114.994C152.93 115.788 152.523 116.511 151.917 117.042C151.31 117.554 150.537 117.826 149.743 117.806H148.914L153.314 97.0992H154.559C154.659 97.0999 154.757 97.1225 154.847 97.1652C155.212 97.2663 155.543 97.4648 155.804 97.7394C156.103 98.0364 156.244 98.5292 156.244 99.2112C156.249 99.3924 156.244 99.5738 156.231 99.7546ZM161.247 76.34C161.246 76.4702 161.224 76.5994 161.183 76.7228L158.369 89.9536C158.198 90.7654 157.861 91.3682 157.348 91.773C156.836 92.1778 156.09 92.3846 155.111 92.3846H154.345L157.887 75.713L161.247 76.131V76.34ZM191.864 81.7916L188.593 81.9346L188.1 81.1426L188.269 79.2748C189.697 78.1748 190.991 78.2452 192.119 79.7346L191.864 81.7916ZM196.548 82.0116L195.989 82.4714L192.762 81.8554L192.966 79.772C194.253 78.6412 195.507 78.672 196.726 79.8952L196.548 82.0116Z" fill="#141414"/>
</svg>
