<svg width="56" height="56" viewBox="0 0 56 56" fill="none" xmlns="http://www.w3.org/2000/svg">
<rect width="56" height="56" rx="28" fill="#141414"/>
<g clip-path="url(#clip0_114_107)">
<path fill-rule="evenodd" clip-rule="evenodd" d="M32.6334 27.1163C32.8678 27.3507 32.9994 27.6686 32.9994 28C32.9994 28.3315 32.8678 28.6494 32.6334 28.8838L25.5622 35.955C25.4469 36.0744 25.309 36.1696 25.1565 36.2351C25.0039 36.3007 24.8399 36.3351 24.6739 36.3366C24.508 36.338 24.3434 36.3064 24.1898 36.2435C24.0361 36.1807 23.8966 36.0879 23.7792 35.9705C23.6618 35.8531 23.569 35.7136 23.5062 35.56C23.4433 35.4063 23.4117 35.2417 23.4131 35.0758C23.4146 34.9098 23.4491 34.7458 23.5146 34.5933C23.5801 34.4408 23.6753 34.3028 23.7947 34.1875L29.9822 28L23.7947 21.8125C23.567 21.5768 23.441 21.261 23.4439 20.9333C23.4467 20.6055 23.5782 20.292 23.8099 20.0602C24.0417 19.8285 24.3552 19.697 24.6829 19.6942C25.0107 19.6913 25.3264 19.8173 25.5622 20.045L32.6334 27.1163Z" fill="white"/>
</g>
<defs>
<clipPath id="clip0_114_107">
<rect width="30" height="30" fill="white" transform="translate(13 13)"/>
</clipPath>
</defs>
</svg>
