<svg width="56" height="56" viewBox="0 0 56 56" fill="none" xmlns="http://www.w3.org/2000/svg">
<rect width="56" height="56" rx="28" fill="white"/>
<g clip-path="url(#clip0_2_908)">
<path fill-rule="evenodd" clip-rule="evenodd" d="M32.6339 27.1163C32.8683 27.3507 32.9999 27.6686 32.9999 28C32.9999 28.3315 32.8683 28.6494 32.6339 28.8838L25.5627 35.955C25.4474 36.0744 25.3094 36.1696 25.1569 36.2351C25.0044 36.3007 24.8404 36.3351 24.6744 36.3366C24.5085 36.338 24.3439 36.3064 24.1902 36.2435C24.0366 36.1807 23.8971 36.0879 23.7797 35.9705C23.6623 35.8531 23.5695 35.7136 23.5067 35.56C23.4438 35.4063 23.4122 35.2417 23.4136 35.0758C23.4151 34.9098 23.4495 34.7458 23.5151 34.5933C23.5806 34.4408 23.6758 34.3028 23.7952 34.1875L29.9827 28L23.7952 21.8125C23.5675 21.5768 23.4415 21.261 23.4443 20.9333C23.4472 20.6055 23.5787 20.292 23.8104 20.0602C24.0422 19.8285 24.3557 19.697 24.6834 19.6942C25.0112 19.6913 25.3269 19.8173 25.5627 20.045L32.6339 27.1163Z" fill="#141414"/>
</g>
<defs>
<clipPath id="clip0_2_908">
<rect width="30" height="30" fill="white" transform="translate(13 13)"/>
</clipPath>
</defs>
</svg>
