<svg width="56" height="56" viewBox="0 0 56 56" fill="none" xmlns="http://www.w3.org/2000/svg">
<rect width="56" height="56" rx="28" transform="matrix(-1 0 0 1 56 0)" fill="white"/>
<g clip-path="url(#clip0_2_921)">
<path fill-rule="evenodd" clip-rule="evenodd" d="M23.3661 27.1163C23.1317 27.3507 23.0001 27.6686 23.0001 28C23.0001 28.3315 23.1317 28.6494 23.3661 28.8838L30.4373 35.955C30.5526 36.0744 30.6906 36.1696 30.8431 36.2351C30.9956 36.3007 31.1596 36.3351 31.3256 36.3366C31.4915 36.338 31.6561 36.3064 31.8098 36.2435C31.9634 36.1807 32.1029 36.0879 32.2203 35.9705C32.3377 35.8531 32.4305 35.7136 32.4933 35.56C32.5562 35.4063 32.5878 35.2417 32.5864 35.0758C32.5849 34.9098 32.5505 34.7458 32.4849 34.5933C32.4194 34.4408 32.3242 34.3028 32.2048 34.1875L26.0173 28L32.2048 21.8125C32.4325 21.5768 32.5585 21.261 32.5557 20.9333C32.5528 20.6055 32.4213 20.292 32.1896 20.0602C31.9578 19.8285 31.6443 19.697 31.3166 19.6942C30.9888 19.6913 30.6731 19.8173 30.4373 20.045L23.3661 27.1163Z" fill="#141414"/>
</g>
<defs>
<clipPath id="clip0_2_921">
<rect width="30" height="30" fill="white" transform="matrix(-1 0 0 1 43 13)"/>
</clipPath>
</defs>
</svg>
