<svg width="56" height="56" viewBox="0 0 56 56" fill="none" xmlns="http://www.w3.org/2000/svg">
<rect width="56" height="56" rx="28" transform="matrix(-1 0 0 1 56 0)" fill="#141414"/>
<g clip-path="url(#clip0_114_112)">
<path fill-rule="evenodd" clip-rule="evenodd" d="M23.3666 27.1163C23.1322 27.3507 23.0006 27.6686 23.0006 28C23.0006 28.3315 23.1322 28.6494 23.3666 28.8838L30.4378 35.955C30.5531 36.0744 30.691 36.1696 30.8435 36.2351C30.9961 36.3007 31.1601 36.3351 31.3261 36.3366C31.492 36.338 31.6566 36.3064 31.8102 36.2435C31.9639 36.1807 32.1034 36.0879 32.2208 35.9705C32.3382 35.8531 32.431 35.7136 32.4938 35.56C32.5567 35.4063 32.5883 35.2417 32.5869 35.0758C32.5854 34.9098 32.5509 34.7458 32.4854 34.5933C32.4199 34.4408 32.3247 34.3028 32.2053 34.1875L26.0178 28L32.2053 21.8125C32.433 21.5768 32.559 21.261 32.5561 20.9333C32.5533 20.6055 32.4218 20.292 32.1901 20.0602C31.9583 19.8285 31.6448 19.697 31.3171 19.6942C30.9893 19.6913 30.6736 19.8173 30.4378 20.045L23.3666 27.1163Z" fill="white"/>
</g>
<defs>
<clipPath id="clip0_114_112">
<rect width="30" height="30" fill="white" transform="matrix(-1 0 0 1 43 13)"/>
</clipPath>
</defs>
</svg>
