<svg width="30" height="30" viewBox="0 0 30 30" fill="none" xmlns="http://www.w3.org/2000/svg">
<path d="M26.88 22.9762H24.0275C22.9487 22.9762 22.6237 22.1025 20.69 20.1675C19 18.5387 18.2862 18.3362 17.8587 18.3362C17.2675 18.3362 17.1062 18.4987 17.1062 19.3125V21.8775C17.1062 22.5712 16.8812 22.9775 15.0687 22.9775C13.3104 22.8594 11.6052 22.3252 10.0937 21.4189C8.58222 20.5127 7.30766 19.2603 6.375 17.765C4.16048 15.0088 2.61963 11.7738 1.875 8.31749C1.875 7.88999 2.0375 7.50249 2.8525 7.50249H5.7025C6.435 7.50249 6.69875 7.82874 6.98625 8.58249C8.37 12.655 10.7312 16.1975 11.69 16.1975C12.0575 16.1975 12.2175 16.035 12.2175 15.1187V10.9237C12.0962 9.00999 11.08 8.84874 11.08 8.15624C11.0929 7.97354 11.1764 7.80305 11.313 7.68098C11.4495 7.55891 11.6283 7.49488 11.8112 7.50249H16.2912C16.9037 7.50249 17.1062 7.80749 17.1062 8.53999V14.2025C17.1062 14.8137 17.3687 15.0162 17.5537 15.0162C17.9212 15.0162 18.2037 14.8137 18.8775 14.1412C20.3217 12.38 21.5016 10.4177 22.38 8.31624C22.4699 8.06393 22.6399 7.84796 22.864 7.70126C23.0881 7.55456 23.354 7.4852 23.6212 7.50374H26.4725C27.3275 7.50374 27.5087 7.93124 27.3275 8.54124C26.2905 10.8643 25.0073 13.0694 23.5 15.1187C23.1925 15.5875 23.07 15.8312 23.5 16.3812C23.7825 16.8087 24.7825 17.6437 25.4537 18.4375C26.4312 19.4125 27.2425 20.54 27.8562 21.775C28.1012 22.57 27.6937 22.9762 26.88 22.9762Z" fill="#141414"/>
<path d="M26.88 22.9762H24.0275C22.9487 22.9762 22.6237 22.1025 20.69 20.1675C19 18.5387 18.2862 18.3362 17.8587 18.3362C17.2675 18.3362 17.1062 18.4987 17.1062 19.3125V21.8775C17.1062 22.5712 16.8812 22.9775 15.0687 22.9775C13.3104 22.8594 11.6052 22.3252 10.0937 21.4189C8.58222 20.5127 7.30766 19.2603 6.375 17.765C4.16048 15.0088 2.61963 11.7738 1.875 8.31749C1.875 7.88999 2.0375 7.50249 2.8525 7.50249H5.7025C6.435 7.50249 6.69875 7.82874 6.98625 8.58249C8.37 12.655 10.7312 16.1975 11.69 16.1975C12.0575 16.1975 12.2175 16.035 12.2175 15.1187V10.9237C12.0962 9.00999 11.08 8.84874 11.08 8.15624C11.0929 7.97354 11.1764 7.80305 11.313 7.68098C11.4495 7.55891 11.6283 7.49488 11.8112 7.50249H16.2912C16.9037 7.50249 17.1062 7.80749 17.1062 8.53999V14.2025C17.1062 14.8137 17.3687 15.0162 17.5537 15.0162C17.9212 15.0162 18.2037 14.8137 18.8775 14.1412C20.3217 12.38 21.5016 10.4177 22.38 8.31624C22.4699 8.06393 22.6399 7.84796 22.864 7.70126C23.0881 7.55456 23.354 7.4852 23.6212 7.50374H26.4725C27.3275 7.50374 27.5087 7.93124 27.3275 8.54124C26.2905 10.8643 25.0073 13.0694 23.5 15.1187C23.1925 15.5875 23.07 15.8312 23.5 16.3812C23.7825 16.8087 24.7825 17.6437 25.4537 18.4375C26.4312 19.4125 27.2425 20.54 27.8562 21.775C28.1012 22.57 27.6937 22.9762 26.88 22.9762Z" fill="#141414"/>
</svg>
